<svg width="118" height="45" viewBox="0 0 118 45" fill="none" xmlns="http://www.w3.org/2000/svg">
<g clip-path="url(#clip0_50_46)">
<path d="M70.794 25.7853C68.0821 25.7935 65.439 24.9244 63.2525 23.3056C63.0432 23.1487 62.904 22.9145 62.8654 22.6543C62.8268 22.3941 62.8919 22.1291 63.0465 21.9172C63.1995 21.7079 63.4276 21.5674 63.6821 21.5257C63.9365 21.4841 64.1969 21.5446 64.4076 21.6944C66.2571 23.0642 68.4925 23.8005 70.7866 23.7955C73.6519 23.7916 76.3988 22.6413 78.4249 20.5968C80.451 18.5522 81.5909 15.7804 81.5948 12.8889C81.5909 9.99754 80.451 7.22565 78.4249 5.18112C76.3988 3.13658 73.6519 1.98621 70.7866 1.98228C68.494 1.97198 66.2584 2.70319 64.4076 4.06862C63.0404 5.0889 61.929 6.41814 61.1624 7.94981C60.3958 9.48148 59.9954 11.173 59.9931 12.8889C59.9875 14.9144 59.5105 16.9103 58.6006 18.7157C57.6907 20.5211 56.3733 22.0857 54.7546 23.2833C52.5688 24.9035 49.9252 25.7728 47.2131 25.763C43.8268 25.7591 40.5803 24.3999 38.1858 21.9836C35.7913 19.5673 34.4443 16.2912 34.4404 12.8741C34.4424 9.45564 35.7885 6.17765 38.1832 3.75974C40.5779 1.34184 43.8255 -0.0183666 47.2131 -0.0222998C49.9239 -0.0310602 52.5665 0.835227 54.7546 2.45003C54.9634 2.60703 55.1028 2.84054 55.1427 3.10022C55.1826 3.3599 55.1198 3.62496 54.9679 3.83841C54.8921 3.94436 54.7962 4.03406 54.6858 4.10233C54.5753 4.1706 54.4526 4.21607 54.3246 4.2361C54.1966 4.25613 54.0659 4.25037 53.9402 4.21906C53.8145 4.18776 53.6961 4.13155 53.5921 4.05375C51.7418 2.68738 49.5059 1.95616 47.2131 1.96751C44.3478 1.97144 41.6009 3.12172 39.5748 5.16625C37.5488 7.21079 36.4088 9.98267 36.4049 12.8741C36.4088 15.7655 37.5488 18.5374 39.5748 20.5819C41.6009 22.6264 44.3478 23.7768 47.2131 23.7807C49.5074 23.7867 51.7431 23.0503 53.5921 21.6795C54.9594 20.6628 56.0712 19.3364 56.8379 17.8071C57.6046 16.2777 58.0049 14.588 58.0066 12.8741C58.0154 10.85 58.493 8.85593 59.4013 7.0512C60.3096 5.24647 61.6234 3.68103 63.2378 2.47976C65.4243 0.8609 68.0674 -0.00817671 70.7793 -4.47407e-06C74.1675 0.00392556 77.4159 1.3639 79.8118 3.78159C82.2077 6.19928 83.5554 9.47725 83.5593 12.8964C83.5554 16.3123 82.2095 19.5872 79.8166 22.0033C77.4236 24.4194 74.179 25.7794 70.794 25.7853Z" fill="#FFC94E"/>
<path d="M70.7942 19.3112C69.0073 19.3093 67.2943 18.592 66.0308 17.3171C64.7673 16.0421 64.0566 14.3134 64.0547 12.5103C64.0547 12.38 64.0802 12.251 64.1299 12.1307C64.1795 12.0104 64.2522 11.9013 64.3439 11.8095C64.4355 11.7177 64.5443 11.6451 64.6639 11.5959C64.7834 11.5467 64.9115 11.5219 65.0406 11.5229C65.1694 11.5219 65.2971 11.5468 65.4162 11.5961C65.5354 11.6453 65.6437 11.718 65.7347 11.8099C65.8258 11.9017 65.8978 12.0111 65.9467 12.1313C65.9955 12.2516 66.0201 12.3804 66.0191 12.5103C66.0211 13.7877 66.5248 15.0121 67.4199 15.9154C68.3149 16.8186 69.5283 17.3269 70.7942 17.3288C72.06 17.3269 73.2734 16.8186 74.1685 15.9154C75.0636 15.0121 75.5673 13.7877 75.5692 12.5103C75.5692 12.2485 75.6723 11.9973 75.8558 11.8121C76.0393 11.6269 76.2882 11.5229 76.5478 11.5229C76.6769 11.5219 76.8049 11.5467 76.9245 11.5959C77.0441 11.6451 77.1528 11.7177 77.2445 11.8095C77.3361 11.9013 77.4088 12.0104 77.4585 12.1307C77.5081 12.251 77.5337 12.38 77.5337 12.5103C77.5317 14.3134 76.821 16.0421 75.5576 17.3171C74.2941 18.592 72.581 19.3093 70.7942 19.3112Z" fill="white"/>
<path d="M73.1779 10.4686C73.9987 10.4686 74.6641 9.79711 74.6641 8.96882C74.6641 8.14053 73.9987 7.46907 73.1779 7.46907C72.3571 7.46907 71.6917 8.14053 71.6917 8.96882C71.6917 9.79711 72.3571 10.4686 73.1779 10.4686Z" fill="white"/>
<path d="M68.4176 10.4686C69.2384 10.4686 69.9038 9.79711 69.9038 8.96882C69.9038 8.14053 69.2384 7.46907 68.4176 7.46907C67.5968 7.46907 66.9314 8.14053 66.9314 8.96882C66.9314 9.79711 67.5968 10.4686 68.4176 10.4686Z" fill="white"/>
<path d="M47.2058 19.3112C45.419 19.3093 43.7059 18.592 42.4424 17.3171C41.1789 16.0421 40.4683 14.3134 40.4663 12.5103C40.4663 12.38 40.4919 12.251 40.5415 12.1307C40.5911 12.0104 40.6639 11.9013 40.7555 11.8095C40.8472 11.7177 40.9559 11.6451 41.0755 11.5959C41.1951 11.5467 41.3231 11.5219 41.4522 11.5229C41.5813 11.5219 41.7094 11.5467 41.829 11.5959C41.9485 11.6451 42.0573 11.7177 42.1489 11.8095C42.2406 11.9013 42.3133 12.0104 42.3629 12.1307C42.4126 12.251 42.4381 12.38 42.4381 12.5103C42.4381 13.787 42.9402 15.0115 43.8341 15.9149C44.728 16.8183 45.9407 17.3269 47.2058 17.3288C48.4716 17.3269 49.6851 16.8186 50.5801 15.9154C51.4752 15.0121 51.9789 13.7877 51.9808 12.5103C51.9808 12.38 52.0064 12.251 52.056 12.1307C52.1057 12.0104 52.1784 11.9013 52.2701 11.8095C52.3617 11.7177 52.4704 11.6451 52.59 11.5959C52.7096 11.5467 52.8376 11.5219 52.9667 11.5229C53.2263 11.5229 53.4752 11.6269 53.6587 11.8121C53.8422 11.9973 53.9453 12.2485 53.9453 12.5103C53.9434 14.3134 53.2327 16.0421 51.9692 17.3171C50.7057 18.592 48.9926 19.3093 47.2058 19.3112Z" fill="white"/>
<path d="M49.5897 10.4686C50.4106 10.4686 51.076 9.79711 51.076 8.96882C51.076 8.14053 50.4106 7.46907 49.5897 7.46907C48.7689 7.46907 48.1035 8.14053 48.1035 8.96882C48.1035 9.79711 48.7689 10.4686 49.5897 10.4686Z" fill="white"/>
<path d="M44.8295 10.4686C45.6503 10.4686 46.3157 9.79711 46.3157 8.96882C46.3157 8.14053 45.6503 7.46907 44.8295 7.46907C44.0087 7.46907 43.3433 8.14053 43.3433 8.96882C43.3433 9.79711 44.0087 10.4686 44.8295 10.4686Z" fill="white"/>
<path d="M8.21832 34.8358C8.12328 34.7353 8.00912 34.6553 7.88269 34.6005C7.75627 34.5456 7.62019 34.5171 7.48257 34.5166C7.33552 34.512 7.1891 34.538 7.05241 34.593C6.91572 34.6479 6.79167 34.7305 6.68795 34.8358C6.58361 34.9404 6.50169 35.0656 6.44727 35.2035C6.39285 35.3415 6.36709 35.4893 6.37158 35.6377V38.8525H2.22929V35.6377C2.23208 35.4895 2.20554 35.3422 2.15122 35.2045C2.09689 35.0669 2.01587 34.9415 1.91292 34.8358C1.81762 34.7357 1.70343 34.6559 1.57706 34.601C1.4507 34.5462 1.31472 34.5175 1.17717 34.5166C1.03011 34.512 0.883716 34.538 0.747029 34.593C0.610341 34.6479 0.486289 34.7305 0.382565 34.8358C0.277253 34.9401 0.194193 35.065 0.138519 35.2029C0.0828456 35.3408 0.0557334 35.4888 0.0588324 35.6377V43.8046C0.05659 43.9534 0.0841075 44.1011 0.139732 44.2389C0.195356 44.3766 0.277947 44.5016 0.382565 44.6065C0.486289 44.7117 0.610341 44.7944 0.747029 44.8493C0.883716 44.9043 1.03011 44.9303 1.17717 44.9257C1.31472 44.9248 1.4507 44.896 1.57706 44.8412C1.70343 44.7864 1.81762 44.7065 1.91292 44.6065C2.1195 44.392 2.23328 44.1037 2.22929 43.8046V40.7383H6.37158V43.8046C6.36795 43.9529 6.39411 44.1004 6.44848 44.2382C6.50285 44.376 6.58431 44.5013 6.68795 44.6065C6.79167 44.7117 6.91572 44.7944 7.05241 44.8493C7.1891 44.9043 7.33552 44.9303 7.48257 44.9257C7.62019 44.9252 7.75627 44.8967 7.88269 44.8418C8.00912 44.787 8.12328 44.7069 8.21832 44.6065C8.32196 44.5013 8.40342 44.376 8.45779 44.2382C8.51216 44.1004 8.53832 43.9529 8.53469 43.8046V35.6377C8.53919 35.4893 8.51342 35.3415 8.459 35.2035C8.40458 35.0656 8.32266 34.9404 8.21832 34.8358Z" fill="white"/>
<path d="M20.7335 43.3295L17.1945 35.311C17.1264 35.0765 16.9865 34.8699 16.7948 34.7205C16.6032 34.5712 16.3697 34.4868 16.1277 34.4794C15.8872 34.4922 15.6562 34.5786 15.4656 34.7271C15.275 34.8757 15.1338 35.0794 15.0609 35.311L11.5293 43.3295C11.4322 43.5251 11.3842 43.7418 11.3895 43.9606C11.383 44.099 11.4067 44.2372 11.4588 44.3655C11.5109 44.4938 11.5902 44.6089 11.6911 44.703C11.8902 44.8916 12.1538 44.9954 12.4269 44.9926C12.6565 45.0079 12.8848 44.9473 13.0773 44.82C13.2697 44.6928 13.4159 44.5058 13.4937 44.2873L14.1338 42.7355H18.0848L18.747 44.2873C18.8216 44.5079 18.967 44.6971 19.1603 44.8249C19.3536 44.9527 19.5836 45.0117 19.8138 44.9926C20.087 44.9961 20.3509 44.8923 20.5496 44.703C20.654 44.611 20.7366 44.4965 20.7913 44.368C20.8461 44.2396 20.8716 44.1003 20.866 43.9606C20.8767 43.7422 20.8311 43.5247 20.7335 43.3295ZM14.8843 40.961L16.1277 37.9912L17.3711 40.961H14.8843Z" fill="white"/>
<path d="M30.3351 35.5486C29.9708 35.2112 29.5441 34.9497 29.0795 34.7789C28.6149 34.6082 28.1215 34.5317 27.6276 34.5536H24.9494C24.7888 34.5489 24.6288 34.5775 24.4795 34.6375C24.3302 34.6975 24.1947 34.7878 24.0812 34.9027C23.9663 35.0163 23.8762 35.1529 23.8166 35.3038C23.7571 35.4547 23.7294 35.6164 23.7354 35.7787V43.8863C23.7329 44.034 23.7603 44.1806 23.816 44.3173C23.8717 44.4539 23.9544 44.5775 24.0592 44.6807C24.1614 44.7864 24.284 44.8699 24.4194 44.9261C24.5547 44.9823 24.7001 45.01 24.8464 45.0074C24.9845 45.0055 25.1208 44.9756 25.2472 44.9195C25.3736 44.8634 25.4875 44.7821 25.5822 44.6807C25.6846 44.5761 25.7653 44.452 25.8196 44.3156C25.8739 44.1792 25.9008 44.0333 25.8985 43.8863V41.3026H27.6202C28.6158 41.3475 29.5904 41.0046 30.3425 40.3448C30.6767 40.0459 30.9425 39.6773 31.1216 39.2646C31.3008 38.8518 31.3889 38.4046 31.3799 37.9541C31.3886 37.5007 31.2997 37.0508 31.1194 36.6355C30.939 36.2202 30.6714 35.8494 30.3351 35.5486ZM27.5098 39.4167H25.928V36.4469H27.5098C28.6723 36.4469 29.2536 36.9518 29.2536 37.9318C29.2536 38.9119 28.6723 39.4167 27.5098 39.4167Z" fill="white"/>
<path d="M40.8637 35.5486C40.5011 35.2108 40.0758 34.9489 39.6123 34.7781C39.1488 34.6074 38.6564 34.531 38.1634 34.5537H35.4853C35.3235 34.5488 35.1625 34.5772 35.0119 34.6372C34.8614 34.6972 34.7246 34.7876 34.6098 34.9027C34.4895 35.0181 34.3946 35.1577 34.3312 35.3124C34.2679 35.4672 34.2374 35.6336 34.2419 35.801V43.9086C34.2397 44.0556 34.2665 44.2015 34.3208 44.3379C34.3751 44.4743 34.4559 44.5984 34.5583 44.703C34.6621 44.8086 34.786 44.8919 34.9226 44.9481C35.0591 45.0042 35.2055 45.032 35.3529 45.0297C35.491 45.0278 35.6272 44.9978 35.7536 44.9417C35.88 44.8856 35.994 44.8044 36.0886 44.703C36.191 44.5984 36.2717 44.4743 36.3261 44.3379C36.3804 44.2015 36.4072 44.0556 36.405 43.9086V41.3248H38.1046C39.098 41.3701 40.0704 41.0271 40.8195 40.3671C41.1558 40.0696 41.4236 39.7014 41.6041 39.2884C41.7845 38.8754 41.8733 38.4277 41.8643 37.9764C41.8828 37.5226 41.8028 37.0702 41.6299 36.6509C41.4571 36.2315 41.1956 35.8553 40.8637 35.5486ZM38.0457 39.4167H36.4491V36.4469H38.031C39.1861 36.4469 39.7674 36.9518 39.7674 37.9318C39.7674 38.9119 39.1714 39.4167 38.0163 39.4167H38.0457Z" fill="white"/>
<path d="M51.8118 34.7913C51.7156 34.6939 51.6008 34.6172 51.4743 34.5662C51.3478 34.5151 51.2122 34.4906 51.076 34.4943C50.9189 34.4924 50.7636 34.5292 50.6239 34.6017C50.4841 34.6742 50.364 34.7801 50.274 34.9101L47.9491 38.4664L45.6094 34.9101C45.5206 34.7807 45.4017 34.6751 45.2632 34.6026C45.1247 34.5301 44.9708 34.493 44.8148 34.4943C44.6784 34.4898 44.5426 34.5138 44.416 34.5649C44.2894 34.616 44.1746 34.6931 44.079 34.7913C43.981 34.8872 43.9041 35.0029 43.8534 35.1308C43.8027 35.2587 43.7793 35.3961 43.7847 35.5338C43.7817 35.7316 43.8381 35.9257 43.9466 36.0906L46.8454 40.3448V43.968C46.8464 44.1068 46.8749 44.244 46.9292 44.3715C46.9835 44.499 47.0626 44.6143 47.1618 44.7104C47.3587 44.9052 47.6219 45.0168 47.8976 45.0223C48.1739 45.0199 48.4382 44.9078 48.6333 44.7104C48.7349 44.6157 48.816 44.5009 48.8717 44.3732C48.9274 44.2455 48.9564 44.1075 48.957 43.968V40.3671L51.8559 36.1129C51.9612 35.9465 52.0173 35.7534 52.0178 35.556C52.0363 35.4211 52.0276 35.2838 51.9922 35.1524C51.9568 35.021 51.8954 34.8982 51.8118 34.7913Z" fill="white"/>
<path d="M67.6378 34.8432C67.5493 34.7503 67.443 34.6768 67.3253 34.627C67.2077 34.5772 67.0811 34.5522 66.9535 34.5536H60.8983C60.7697 34.5529 60.6422 34.5782 60.5235 34.628C60.4047 34.6777 60.297 34.7508 60.2067 34.8432C60.1084 34.9386 60.0319 35.0544 59.9823 35.1826C59.9328 35.3108 59.9114 35.4483 59.9197 35.5857C59.9189 35.7132 59.9439 35.8397 59.9932 35.9571C60.0426 36.0746 60.1152 36.1806 60.2067 36.2687C60.297 36.3611 60.4047 36.4344 60.5235 36.4841C60.6422 36.5338 60.7697 36.559 60.8983 36.5583H62.8186V43.8789C62.8159 44.031 62.8431 44.1822 62.8986 44.3237C62.9542 44.4651 63.037 44.594 63.1423 44.703C63.2427 44.8121 63.3646 44.8988 63.5002 44.9577C63.6358 45.0165 63.782 45.046 63.9296 45.0445C64.0686 45.0402 64.2054 45.0079 64.3318 44.9492C64.4582 44.8906 64.5716 44.8068 64.6653 44.703C64.7716 44.5944 64.8555 44.4657 64.9124 44.3242C64.9692 44.1828 64.9978 44.0315 64.9964 43.8789V36.5434H66.9241C67.051 36.5446 67.1768 36.5202 67.2943 36.4718C67.4118 36.4233 67.5185 36.3518 67.6083 36.2613C67.7005 36.1726 67.773 36.0652 67.8212 35.9462C67.8694 35.8272 67.8921 35.6993 67.8879 35.5708C67.8993 35.4386 67.8829 35.3055 67.8398 35.1801C67.7967 35.0547 67.7279 34.9399 67.6378 34.8432Z" fill="white"/>
<path d="M77.4822 43.2255C77.3948 43.1338 77.2895 43.0614 77.173 43.0129C77.0565 42.9643 76.9313 42.9407 76.8053 42.9434H72.8984V40.6269H75.297C75.4228 40.6279 75.5475 40.6034 75.6637 40.555C75.78 40.5065 75.8854 40.435 75.9739 40.3448C76.0656 40.2601 76.1386 40.1568 76.1881 40.0416C76.2375 39.9265 76.2623 39.8021 76.2608 39.6766C76.2605 39.5557 76.2347 39.4363 76.1853 39.3263C76.1358 39.2162 76.0638 39.1179 75.9739 39.0381C75.8851 38.9488 75.7794 38.8785 75.6631 38.8313C75.5468 38.7841 75.4223 38.761 75.297 38.7634H72.8984V36.4766H76.6581C76.7839 36.4776 76.9086 36.4531 77.0249 36.4047C77.1411 36.3562 77.2466 36.2848 77.335 36.1945C77.4281 36.1061 77.5018 35.999 77.5512 35.88C77.6006 35.7611 77.6247 35.6329 77.622 35.504C77.6242 35.3762 77.5997 35.2494 77.5503 35.1318C77.5009 35.0141 77.4275 34.9082 77.335 34.821C77.2466 34.7307 77.1411 34.6592 77.0249 34.6107C76.9086 34.5623 76.7839 34.5379 76.6581 34.5389H71.9125C71.7519 34.5346 71.5921 34.5632 71.4429 34.6232C71.2936 34.6832 71.158 34.7733 71.0443 34.8878C70.9308 35.0025 70.8416 35.1393 70.7822 35.2899C70.7227 35.4405 70.6943 35.6018 70.6985 35.7638V43.6487C70.6937 43.8119 70.7219 43.9745 70.7813 44.1264C70.8408 44.2783 70.9303 44.4164 71.0443 44.5322C71.1586 44.6454 71.2945 44.7341 71.4437 44.7928C71.593 44.8515 71.7524 44.879 71.9125 44.8737H76.8053C76.9306 44.8761 77.0551 44.853 77.1714 44.8058C77.2877 44.7586 77.3934 44.6883 77.4822 44.599C77.5747 44.5087 77.648 44.4001 77.6973 44.2801C77.7467 44.1601 77.7711 44.0311 77.7691 43.9012C77.7712 43.7745 77.7467 43.6488 77.6972 43.5324C77.6478 43.4159 77.5745 43.3113 77.4822 43.2255Z" fill="white"/>
<path d="M89.0039 43.3295L85.4649 35.311C85.3967 35.0765 85.2568 34.8699 85.0652 34.7205C84.8736 34.5712 84.6401 34.4868 84.3981 34.4794C84.1566 34.4917 83.9245 34.5779 83.7326 34.7264C83.5408 34.8749 83.3982 35.0788 83.3239 35.311L79.7996 43.3295C79.7003 43.5246 79.6498 43.7412 79.6525 43.9606C79.6475 44.0995 79.6725 44.2379 79.7259 44.3661C79.7793 44.4944 79.8597 44.6093 79.9615 44.703C80.1606 44.8916 80.4242 44.9954 80.6972 44.9926C80.9269 45.0079 81.1551 44.9473 81.3476 44.82C81.5401 44.6928 81.6863 44.5058 81.7641 44.2873L82.4042 42.7355H86.3552L87.0174 44.2873C87.092 44.5079 87.2374 44.6971 87.4307 44.8249C87.6239 44.9527 87.8539 45.0117 88.0842 44.9926C88.3574 44.9961 88.6213 44.8923 88.82 44.703C88.9243 44.611 89.0069 44.4965 89.0617 44.368C89.1164 44.2396 89.142 44.1003 89.1363 43.9606C89.1436 43.7425 89.0982 43.5259 89.0039 43.3295ZM83.1179 40.961L84.3613 37.9912L85.6047 40.961H83.1179Z" fill="white"/>
<path d="M102.719 34.7987C102.622 34.7029 102.507 34.6282 102.38 34.5797C102.253 34.5311 102.118 34.5097 101.983 34.5166C101.758 34.5214 101.541 34.5939 101.357 34.7245C101.159 34.8622 100.993 35.0421 100.872 35.2516L97.48 41.3471L94.0808 35.2516C93.9635 35.0369 93.797 34.8536 93.5952 34.7171C93.416 34.5902 93.2033 34.5204 92.9845 34.5166C92.8494 34.5114 92.7146 34.5337 92.5882 34.5822C92.4618 34.6307 92.3464 34.7043 92.2488 34.7987C92.1522 34.8957 92.0763 35.0117 92.0257 35.1393C91.9751 35.267 91.9508 35.4037 91.9545 35.5412V43.775C91.9517 43.9255 91.9797 44.0751 92.0367 44.2143C92.0936 44.3535 92.1783 44.4794 92.2855 44.5842C92.3917 44.6909 92.5181 44.7748 92.6571 44.831C92.7962 44.8871 92.9451 44.9143 93.0949 44.9109C93.2391 44.9141 93.3824 44.8866 93.5155 44.8304C93.6486 44.7741 93.7685 44.6902 93.8674 44.5842C93.9722 44.478 94.0549 44.3517 94.1105 44.2127C94.1661 44.0737 94.1935 43.9248 94.1911 43.775V39.4242L96.5161 43.8195C96.5931 44.0079 96.7236 44.169 96.8912 44.2827C97.0588 44.3963 97.256 44.4573 97.4579 44.458C97.6608 44.4578 97.8592 44.3971 98.028 44.2835C98.1969 44.1699 98.3287 44.0085 98.407 43.8195L100.717 39.4242V43.775C100.717 43.9241 100.746 44.0718 100.803 44.2095C100.86 44.3472 100.943 44.4721 101.048 44.5768C101.149 44.6836 101.27 44.7684 101.404 44.8259C101.538 44.8834 101.682 44.9124 101.828 44.9109C101.977 44.9142 102.125 44.8869 102.263 44.8307C102.4 44.7746 102.525 44.6907 102.63 44.5842C102.74 44.4809 102.827 44.3555 102.885 44.2161C102.943 44.0766 102.972 43.9263 102.969 43.775V35.5412C102.979 35.4068 102.963 35.2715 102.92 35.1438C102.877 35.0161 102.808 34.8987 102.719 34.7987Z" fill="white"/>
<path d="M112.475 40.1221C111.737 39.4866 110.881 39.0047 109.958 38.7041L109.473 38.5259C108.788 38.2512 108.45 37.8725 108.45 37.3899C108.445 37.2487 108.472 37.1082 108.529 36.9793C108.586 36.8505 108.673 36.7369 108.781 36.6474C109.037 36.4482 109.356 36.3481 109.679 36.3653C109.911 36.3688 110.14 36.4207 110.351 36.5178C110.563 36.615 110.752 36.7551 110.907 36.9296C111.012 37.0573 111.144 37.1601 111.293 37.2307C111.441 37.3012 111.604 37.3378 111.768 37.3379C111.889 37.3427 112.009 37.3229 112.121 37.2795C112.234 37.2361 112.337 37.1701 112.423 37.0855C112.506 37.0066 112.572 36.911 112.617 36.8049C112.661 36.6987 112.683 36.5844 112.681 36.4693C112.64 36.0924 112.468 35.7423 112.195 35.4817C111.851 35.1429 111.443 34.8766 110.996 34.6982C110.549 34.5197 110.071 34.4328 109.59 34.4424C108.722 34.4155 107.872 34.6995 107.192 35.2442C106.883 35.4977 106.636 35.82 106.472 36.1859C106.307 36.5517 106.229 36.9512 106.243 37.3527C106.228 37.6637 106.278 37.9744 106.389 38.2647C106.501 38.555 106.672 38.8185 106.89 39.0381C107.483 39.5635 108.173 39.9648 108.921 40.2186L109.443 40.4265C109.872 40.581 110.274 40.8014 110.635 41.0799C110.744 41.1804 110.83 41.3035 110.887 41.4406C110.944 41.5777 110.971 41.7257 110.966 41.8743C110.976 42.047 110.941 42.2192 110.865 42.3742C110.789 42.5291 110.674 42.6613 110.532 42.7578C110.208 42.9681 109.828 43.0718 109.443 43.0548C109.144 43.0547 108.849 42.9882 108.578 42.8599C108.307 42.7315 108.067 42.5446 107.876 42.3124C107.764 42.1338 107.612 41.9848 107.431 41.8776C107.251 41.7704 107.048 41.7082 106.839 41.6961C106.717 41.6893 106.596 41.7106 106.484 41.7581C106.371 41.8057 106.271 41.8785 106.191 41.9709C106.03 42.1493 105.944 42.383 105.948 42.6241C105.969 43.0336 106.136 43.4217 106.419 43.7156C106.794 44.129 107.257 44.4514 107.773 44.6585C108.309 44.8743 108.881 44.9852 109.458 44.9852C110.056 45.0176 110.653 44.909 111.202 44.668C111.751 44.4271 112.237 44.0603 112.622 43.5968C113.017 43.1125 113.229 42.5018 113.218 41.8743C113.221 41.5462 113.157 41.2209 113.029 40.9192C112.901 40.6175 112.712 40.346 112.475 40.1221Z" fill="white"/>
<path d="M117.647 42.8617C117.535 42.7461 117.401 42.6543 117.253 42.5918C117.105 42.5293 116.946 42.4974 116.786 42.4979C116.625 42.4946 116.465 42.5245 116.316 42.5858C116.166 42.647 116.031 42.7384 115.918 42.8543C115.802 42.9666 115.711 43.1017 115.649 43.2511C115.587 43.4005 115.556 43.561 115.557 43.723C115.556 43.8871 115.587 44.0498 115.649 44.2016C115.711 44.3534 115.802 44.4911 115.918 44.6065C116.031 44.7223 116.166 44.8137 116.316 44.875C116.465 44.9363 116.625 44.9661 116.786 44.9628C116.947 44.965 117.106 44.9339 117.254 44.8713C117.402 44.8087 117.536 44.716 117.647 44.599C117.76 44.4839 117.85 44.3472 117.911 44.1968C117.971 44.0464 118.002 43.8854 118 43.723C118.002 43.5628 117.972 43.4038 117.911 43.2557C117.851 43.1076 117.761 42.9736 117.647 42.8617Z" fill="white"/>
</g>
<defs>
<clipPath id="clip0_50_46">
<rect width="118" height="45" fill="white"/>
</clipPath>
</defs>
</svg>
